<?xml version="1.0" encoding="utf-8"?>
<!-- Generator: Adobe Illustrator 26.3.1, SVG Export Plug-In . SVG Version: 6.00 Build 0)  -->
<svg version="1.1" id="Layer_1" xmlns:svgjs="http://svgjs.com/svgjs"
	 xmlns="http://www.w3.org/2000/svg" xmlns:xlink="http://www.w3.org/1999/xlink" x="0px" y="0px" viewBox="0 0 512 512"
	 style="enable-background:new 0 0 512 512;" xml:space="preserve">
<style type="text/css">
	.st0{fill:url(#SVGID_1_);}
</style>
<linearGradient id="SVGID_1_" gradientUnits="userSpaceOnUse" x1="256" y1="449.9454" x2="256" y2="63.1106">
	<stop  offset="0" style="stop-color:#0009FF"/>
	<stop  offset="1" style="stop-color:#FF0000"/>
</linearGradient>
<path class="st0" d="M13.6,264.6l221,176c12.5,12.4,32.6,12.4,45.1,0l221-176c11.9-13.1,10.9-33.3-2.1-45.2
	c-12.2-11.1-30.8-11.1-43-0.1L257.1,372.8L58.7,219.4c-11.9-13.1-32.1-14-45.2-2.1c-13.1,11.9-14,32.1-2.1,45.2
	C12,263.2,12.8,263.9,13.6,264.6L13.6,264.6z M234.6,292.6c12.5,12.4,32.6,12.4,45.1,0l221-176c11.9-13.1,10.9-33.3-2.1-45.2
	c-12.2-11.1-30.8-11.1-43-0.1L257.1,224.8L58.7,71.4c-13.1-11.8-33.4-10.8-45.2,2.3c-11,12.2-11,30.8,0.1,43L234.6,292.6z"/>
</svg>
