<svg width="14" height="12" viewBox="0 0 14 12" fill="none" xmlns="http://www.w3.org/2000/svg">
<path d="M7.64062 0.495117L9.10938 3.46387L12.3906 3.94824C12.5677 3.96908 12.7135 4.0472 12.8281 4.18262C12.9531 4.31803 13.0156 4.47428 13.0156 4.65137C13.0156 4.75553 12.9948 4.85449 12.9531 4.94824C12.9115 5.03158 12.8594 5.10449 12.7969 5.16699L10.4219 7.47949L10.9688 10.7451C10.9792 10.766 10.9844 10.7868 10.9844 10.8076C10.9844 10.8285 10.9844 10.8493 10.9844 10.8701C10.9844 11.068 10.9115 11.2399 10.7656 11.3857C10.6302 11.5212 10.4635 11.5889 10.2656 11.5889C10.2031 11.5889 10.1406 11.5837 10.0781 11.5732C10.026 11.5524 9.97917 11.5264 9.9375 11.4951V11.5107L7 9.96387L4.0625 11.5107C4.01042 11.5316 3.95833 11.5524 3.90625 11.5732C3.85417 11.5837 3.79688 11.5889 3.73438 11.5889C3.53646 11.5889 3.36458 11.5212 3.21875 11.3857C3.08333 11.2399 3.01562 11.068 3.01562 10.8701C3.01562 10.8493 3.01562 10.8285 3.01562 10.8076C3.01562 10.7868 3.02083 10.766 3.03125 10.7451L3.57812 7.47949L1.20312 5.16699C1.14062 5.10449 1.08854 5.03158 1.04688 4.94824C1.00521 4.85449 0.984375 4.75553 0.984375 4.65137C0.984375 4.47428 1.04167 4.32324 1.15625 4.19824C1.28125 4.06283 1.43229 3.97949 1.60938 3.94824L4.89062 3.46387L6.35938 0.495117C6.42188 0.370117 6.51042 0.271159 6.625 0.198242C6.73958 0.125326 6.86458 0.0888672 7 0.0888672C7.13542 0.0888672 7.26042 0.125326 7.375 0.198242C7.48958 0.271159 7.57812 0.364909 7.64062 0.479492V0.495117Z" fill="#B3DB56"/>
</svg>
