<svg width="12" height="12" viewBox="0 0 12 12" fill="none" xmlns="http://www.w3.org/2000/svg">
<path d="M11.3281 5.47949C11.5156 5.47949 11.6719 5.5472 11.7969 5.68262C11.9323 5.80762 12 5.96387 12 6.15137V8.57324C12 9.38574 11.7083 10.0837 11.125 10.667C10.5521 11.2399 9.85938 11.5264 9.04688 11.5264H2.95312C2.14062 11.5264 1.44271 11.2399 0.859375 10.667C0.286458 10.0837 0 9.38574 0 8.57324V6.15137C0 5.96387 0.0625 5.80762 0.1875 5.68262C0.322917 5.5472 0.484375 5.47949 0.671875 5.47949C0.848958 5.47949 1 5.5472 1.125 5.68262C1.26042 5.80762 1.32812 5.96387 1.32812 6.15137V8.57324C1.32812 9.02116 1.48438 9.40658 1.79688 9.72949C2.11979 10.042 2.50521 10.1982 2.95312 10.1982H9.04688C9.49479 10.1982 9.875 10.042 10.1875 9.72949C10.5104 9.40658 10.6719 9.02116 10.6719 8.57324V6.15137C10.6719 5.96387 10.7344 5.80762 10.8594 5.68262C10.9948 5.5472 11.151 5.47949 11.3281 5.47949ZM5.45312 7.94824L3.29688 5.85449C3.23438 5.79199 3.18229 5.71908 3.14062 5.63574C3.10938 5.55241 3.09375 5.46387 3.09375 5.37012C3.09375 5.19303 3.15625 5.04199 3.28125 4.91699C3.41667 4.78158 3.57292 4.71387 3.75 4.71387C3.84375 4.71387 3.92708 4.72949 4 4.76074C4.08333 4.79199 4.15625 4.83887 4.21875 4.90137L5.32812 5.97949V0.807617C5.32812 0.630534 5.39062 0.479492 5.51562 0.354492C5.65104 0.219076 5.8125 0.151367 6 0.151367C6.1875 0.151367 6.34375 0.219076 6.46875 0.354492C6.60417 0.479492 6.67188 0.630534 6.67188 0.807617V5.97949L7.78125 4.90137C7.83333 4.84928 7.89583 4.80762 7.96875 4.77637C8.05208 4.74512 8.13542 4.72949 8.21875 4.72949C8.39583 4.72949 8.54688 4.7972 8.67188 4.93262C8.80729 5.05762 8.875 5.21387 8.875 5.40137C8.875 5.4847 8.85938 5.56803 8.82812 5.65137C8.79688 5.72428 8.75521 5.79199 8.70312 5.85449L6.54688 7.94824C6.47396 8.02116 6.39062 8.07845 6.29688 8.12012C6.20312 8.15137 6.10417 8.16699 6 8.16699C5.89583 8.16699 5.79688 8.15137 5.70312 8.12012C5.60938 8.07845 5.52604 8.02116 5.45312 7.94824Z" fill="#B3DB56"/>
</svg>
